<svg xmlns="http://www.w3.org/2000/svg" viewBox="0 0 38.1 41"><defs><style>.cls-1{fill:#0f1d2c;}</style></defs><title>корзина</title><g id="Слой_2" data-name="Слой 2"><g id="Capa_1" data-name="Capa 1"><path class="cls-1" d="M10.86,27H33.45a4.66,4.66,0,0,0,4.65-4.65V12.74a.11.11,0,0,0,0-.05s0,0,0-.06,0,0,0-.05a.54.54,0,0,1,0-.06l0-.05,0-.05,0-.06,0,0,0-.05,0,0,0-.05,0,0,0,0,0,0,0,0,0,0,0,0-.05,0,0,0-.05,0-.05,0-.05,0-.05,0-.05,0-.06,0h-.14l-28.63-4v-4a.52.52,0,0,0,0-.12.06.06,0,0,0,0,0s0-.05,0-.08l0-.07s0,0,0,0l0-.08v0l0-.07,0,0,0-.05,0,0,0,0,0-.05,0,0L8.16,3l0,0-.06-.05,0,0L8,2.81l-.07,0,0,0L7.79,2.7,1.58.09A1.14,1.14,0,1,0,.7,2.19L6.21,4.51V29.44A4.66,4.66,0,0,0,10.26,34a4.59,4.59,0,1,0,8.53,2.36,4.51,4.51,0,0,0-.63-2.32H28.39a4.53,4.53,0,0,0-.63,2.32,4.59,4.59,0,1,0,4.59-4.59H10.86a2.38,2.38,0,0,1-2.38-2.38V26.35A4.7,4.7,0,0,0,10.86,27Zm5.66,9.4a2.32,2.32,0,1,1-2.32-2.32A2.32,2.32,0,0,1,16.52,36.4Zm18.15,0a2.32,2.32,0,1,1-2.32-2.32A2.32,2.32,0,0,1,34.67,36.4ZM33.45,24.72H10.86a2.38,2.38,0,0,1-2.38-2.38V10.05l27.34,3.77v8.52A2.38,2.38,0,0,1,33.45,24.72Z"/></g></g></svg>