<svg xmlns="http://www.w3.org/2000/svg" viewBox="0 0 2.89 5.35"><defs><style>.cls-1{fill:#fff;}</style></defs><title>фейсбук</title><g id="Слой_2" data-name="Слой 2"><g id="Capa_1" data-name="Capa 1"><path class="cls-1" d="M2.78,0H2.09A1.22,1.22,0,0,0,.81,1.32v.61H.11A.11.11,0,0,0,0,2v.88A.11.11,0,0,0,.11,3h.7V5.24a.11.11,0,0,0,.11.11h.91a.11.11,0,0,0,.11-.11V3h.81a.11.11,0,0,0,.11-.11V2a.11.11,0,0,0-.11-.11H1.93V1.41c0-.25.06-.37.38-.37h.47A.11.11,0,0,0,2.89.93V.11A.11.11,0,0,0,2.78,0Z"/></g></g></svg>