<svg xmlns="http://www.w3.org/2000/svg" viewBox="0 0 23.52 20"><defs><style>.cls-1{fill:#0f1d2c;}</style></defs><title>гараж</title><g id="Слой_2" data-name="Слой 2"><g id="Capa_1" data-name="Capa 1"><path class="cls-1" d="M23.21,5.57,12,.06a.55.55,0,0,0-.49,0L.31,5.57a.55.55,0,0,0-.31.5V18.94A1.06,1.06,0,0,0,1.06,20h21.4a1.06,1.06,0,0,0,1.06-1.06V6.07A.55.55,0,0,0,23.21,5.57Zm-4.7,7.34H5V11H18.51ZM5,14H18.51v1.9H5V14ZM18.51,9.9H5v-2H18.51ZM5,17H18.51v1.87H5V17Zm17.41,1.87H19.62V7.38a.55.55,0,0,0-.55-.55H4.45a.55.55,0,0,0-.55.55V18.89H1.11V6.41L11.76,1.17,22.41,6.41Z"/></g></g></svg>