<svg xmlns="http://www.w3.org/2000/svg" viewBox="0 0 2.89 2.89"><defs><style>.cls-1{fill:#fff;}</style></defs><title>инста</title><g id="Слой_2" data-name="Слой 2"><g id="Capa_1" data-name="Capa 1"><path class="cls-1" d="M.37,0H2.52a.36.36,0,0,1,.37.37V2.52a.36.36,0,0,1-.37.37H.37A.36.36,0,0,1,0,2.52V.37A.36.36,0,0,1,.37,0ZM2.11.32A.13.13,0,0,0,2,.45V.76a.13.13,0,0,0,.13.13h.33A.13.13,0,0,0,2.56.76V.45A.13.13,0,0,0,2.43.32Zm.46.9H2.31a.85.85,0,0,1,0,.25.88.88,0,0,1-.9.87.88.88,0,0,1-.9-.87.84.84,0,0,1,0-.25H.32V2.44a.12.12,0,0,0,.11.11h2a.12.12,0,0,0,.11-.11V1.22ZM1.45.88a.57.57,0,0,0-.58.56A.57.57,0,0,0,1.45,2,.57.57,0,0,0,2,1.44.57.57,0,0,0,1.45.88Z"/></g></g></svg>