<svg xmlns="http://www.w3.org/2000/svg" viewBox="0 0 24 24"><defs><style>.cls-1{fill:#41b4e6;}.cls-2{fill:#0091c8;}.cls-3{fill:#fff;}.cls-4{fill:#d2d2d7;}.cls-5{fill:#b9b9be;}</style></defs><title>телеграм</title><g id="Слой_2" data-name="Слой 2"><g id="Слой_1-2" data-name="Слой 1"><g id="Слой_2-2" data-name="Слой 2"><g id="Capa_1" data-name="Capa 1"><circle class="cls-1" cx="12" cy="12" r="12"/><path class="cls-2" d="M24,12q0-.44,0-.87l-5-5L5,11.66,10.36,17l.07.25.09-.09h0l-.09.09,5.92,5.92A12,12,0,0,0,24,12Z"/><polygon class="cls-3" points="10.84 13.75 16.26 17.84 19 6.16 5 11.66 9.26 13.07 17.03 7.86 10.84 13.75"/><polygon class="cls-4" points="9.26 13.07 10.43 17.27 10.84 13.75 17.03 7.86 9.26 13.07"/><polygon class="cls-5" points="12.6 15.08 10.43 17.27 10.84 13.75 12.6 15.08"/></g></g></g></g></svg>