<svg xmlns="http://www.w3.org/2000/svg" viewBox="0 0 3.57 2.9"><defs><style>.cls-1{fill:#fff;}</style></defs><title>Твиттер</title><g id="Слой_2" data-name="Слой 2"><g id="Capa_1" data-name="Capa 1"><path class="cls-1" d="M3.57.34a1.46,1.46,0,0,1-.42.12.74.74,0,0,0,.32-.4A1.48,1.48,0,0,1,3,.23.73.73,0,0,0,1.76.9,2.08,2.08,0,0,1,.25.13a.73.73,0,0,0,.23,1A.73.73,0,0,1,.14,1h0a.73.73,0,0,0,.59.72l-.19,0H.4a.73.73,0,0,0,.68.51,1.47,1.47,0,0,1-.91.31H0a2.07,2.07,0,0,0,1.12.33A2.07,2.07,0,0,0,3.21.82V.72A1.46,1.46,0,0,0,3.57.34Z"/></g></g></svg>