<svg xmlns="http://www.w3.org/2000/svg" viewBox="0 0 21.6 24"><defs><style>.cls-1{fill:#665cac;}.cls-2{fill:#523494;}.cls-3{fill:#fff;}.cls-4{fill:#e5e5e5;}</style></defs><title>вайбер</title><g id="Слой_2" data-name="Слой 2"><g id="Layer_1" data-name="Layer 1"><path class="cls-1" d="M13.2,0H8.4A8.41,8.41,0,0,0,0,8.4V12a8.4,8.4,0,0,0,4.8,7.59v4a.4.4,0,0,0,.68.28L9,20.4H13.2A8.41,8.41,0,0,0,21.6,12V8.4A8.41,8.41,0,0,0,13.2,0Z"/><path class="cls-2" d="M6,19.59A8.4,8.4,0,0,1,1.2,12V8.4A8.41,8.41,0,0,1,9.6,0H8.4A8.41,8.41,0,0,0,0,8.4V12a8.4,8.4,0,0,0,4.8,7.59v4a.4.4,0,0,0,.68.28L6,23.37Z"/><path class="cls-3" d="M16.84,14.91,16.48,13a.4.4,0,0,0-.31-.32l-2.83-.57a.4.4,0,0,0-.36.11l-1.15,1.15a7.18,7.18,0,0,1-4-4L9,8.23a.4.4,0,0,0,.11-.36L8.56,5a.4.4,0,0,0-.32-.31L6.29,4.36a.4.4,0,0,0-.16,0,2.79,2.79,0,0,0-1.36.75,3,3,0,0,0-.71,2.73,12.08,12.08,0,0,0,3,6.31l0,0a12.08,12.08,0,0,0,6.31,3,4.47,4.47,0,0,0,.7.06,2.71,2.71,0,0,0,2.78-2.13A.4.4,0,0,0,16.84,14.91Z"/><polygon class="cls-4" points="8.63 8.62 9.02 8.23 9.02 8.23 8.63 8.62 8.63 8.62"/><rect class="cls-4" x="12.5" y="12.38" width="0.56" transform="translate(-5.01 12.66) rotate(-45)"/><path class="cls-4" d="M14.81,16.45a4.47,4.47,0,0,1-.7-.06,12.08,12.08,0,0,1-6.31-3l0,0a12.08,12.08,0,0,1-3-6.31A3.26,3.26,0,0,1,5.2,4.77a2.8,2.8,0,0,0-.43.35,3,3,0,0,0-.71,2.73,12.08,12.08,0,0,0,3,6.31l0,0a12.08,12.08,0,0,0,6.31,3,4.47,4.47,0,0,0,.7.06A2.68,2.68,0,0,0,16.44,16,2.94,2.94,0,0,1,14.81,16.45Z"/><path class="cls-3" d="M11.6,6.8a.4.4,0,1,0,0,.8,1.6,1.6,0,0,1,1.6,1.6.4.4,0,0,0,.8,0A2.4,2.4,0,0,0,11.6,6.8Z"/><path class="cls-3" d="M11.6,5.2l-.44,0a.4.4,0,1,0,.09.8l.36,0a3.2,3.2,0,0,1,3.2,3.2,3.26,3.26,0,0,1,0,.36.4.4,0,0,0,.8.09,4.07,4.07,0,0,0,0-.44A4,4,0,0,0,11.6,5.2Z"/><path class="cls-3" d="M11.6,3.6l-.43,0a.4.4,0,0,0,.06.8h.37a4.81,4.81,0,0,1,4.67,5.91.4.4,0,0,0,.78.18A5.61,5.61,0,0,0,11.6,3.6Z"/></g></g></svg>