<svg xmlns="http://www.w3.org/2000/svg" viewBox="0 0 2.89 1.65"><defs><style>.cls-1{fill:#3F6588;}</style></defs><title>вк</title><g id="Слой_2" data-name="Слой 2"><g id="Capa_1" data-name="Capa 1"><path class="cls-1" d="M2.87,1.49v0a1.5,1.5,0,0,0-.29-.33h0L2.45,1a.12.12,0,0,1,0-.12,1.14,1.14,0,0,1,.14-.2l.1-.13q.26-.35.23-.44v0l0,0H2.24l0,0,0,0A2.46,2.46,0,0,1,2,.47l-.1.16-.08.1L1.81.79l0,0h0l0,0a.17.17,0,0,1,0-.06s0,0,0-.06,0,0,0-.07V.51s0-.08,0-.12V.28s0-.05,0-.08a.35.35,0,0,0,0-.07l0,0,0,0L1.59,0l-.2,0A1,1,0,0,0,1,0L1,.08s0,0,0,0a.18.18,0,0,1,.13.06v0a.29.29,0,0,1,0,.07.7.7,0,0,1,0,.11,1.17,1.17,0,0,1,0,.19V.69a.24.24,0,0,1,0,.07l0,0H1L1,.79.92.73.85.63.77.47l0,0L.68.3.61.15a.1.1,0,0,0,0,0H.1A.1.1,0,0,0,0,.1H0a0,0,0,0,0,0,0,.12.12,0,0,0,0,0Q.1.39.21.59L.39.9l.16.23.11.14,0,0,0,0,.11.09.15.1.2.08a.68.68,0,0,0,.22,0h.17a.12.12,0,0,0,.08,0h0v0a.15.15,0,0,0,0,0,.5.5,0,0,1,0-.12.31.31,0,0,1,0-.08l0,0,0,0h0a.1.1,0,0,1,.09,0L2,1.37l.1.12.11.1,0,0,.08,0h.47l.09,0a.07.07,0,0,0,0,0,.12.12,0,0,0,0-.05Z"/></g></g></svg>