<svg xmlns="http://www.w3.org/2000/svg" viewBox="0 0 24 24"><defs><style>.cls-1{fill:#2cb742;}.cls-2{fill:#fff;}</style></defs><title>вотсап</title><g id="Слой_2" data-name="Слой 2"><g id="Capa_1" data-name="Capa 1"><path class="cls-1" d="M0,24l2.06-6.19a11.79,11.79,0,1,1,4.66,4.42Z"/><path class="cls-2" d="M19.73,15.72a8.54,8.54,0,0,0-2.55-2.21c-.45-.26-1-.29-1.26.17a10.4,10.4,0,0,1-.82.9,1.53,1.53,0,0,1-2.17-.22l-1.65-1.65L9.63,11.07A1.53,1.53,0,0,1,9.42,8.9a10.4,10.4,0,0,1,.9-.82c.46-.26.43-.81.17-1.26A8.54,8.54,0,0,0,8.28,4.27,1.13,1.13,0,0,0,7,4.47l-.73.73C3.92,7.5,5.06,10.11,7.37,12.42l2.11,2.11,2.11,2.11c2.31,2.31,4.91,3.44,7.22,1.14l.73-.73A1.13,1.13,0,0,0,19.73,15.72Z"/></g></g></svg>