<svg xmlns="http://www.w3.org/2000/svg" viewBox="0 0 30.48 26"><defs><style>.cls-1{fill:#0f1d2c;}</style></defs><title>колесо</title><g id="Слой_2" data-name="Слой 2"><g id="Capa_1" data-name="Capa 1"><path class="cls-1" d="M17.48,11.51A1.49,1.49,0,1,0,19,13,1.49,1.49,0,0,0,17.48,11.51Z"/><path class="cls-1" d="M18.46,7V9.68A3.48,3.48,0,0,1,20.33,11l2.56-.83A6.11,6.11,0,0,0,18.46,7Z"/><path class="cls-1" d="M23.5,12.08l-2.56.83s0,.06,0,.09a3.45,3.45,0,0,1-.72,2.11l1.58,2.17a6.09,6.09,0,0,0,1.69-5.2Z"/><path class="cls-1" d="M17.48,0h-12a1,1,0,0,0,0,2H10.6A13.1,13.1,0,0,0,7.7,4.44H1a1,1,0,0,0,0,2H6.27a13,13,0,0,0,.6,14.09H4.07a1,1,0,0,0,0,2H8.59a13.08,13.08,0,0,0,2,1.55H1.09a1,1,0,0,0,0,2H17.48a13,13,0,1,0,0-26Zm4.8,19.48-.06,0-.07,0a8,8,0,0,1-9.35,0l-.07,0-.06,0a8.07,8.07,0,1,1,9.59,0Z"/><path class="cls-1" d="M12.07,10.2l2.56.83a3.48,3.48,0,0,1,1.87-1.36V7A6.11,6.11,0,0,0,12.07,10.2Z"/><path class="cls-1" d="M18.63,16.27a3.46,3.46,0,0,1-2.31,0l-1.58,2.17a6.08,6.08,0,0,0,5.47,0Z"/><path class="cls-1" d="M14,13s0-.06,0-.09l-2.56-.83a6.09,6.09,0,0,0,1.69,5.2l1.58-2.17A3.45,3.45,0,0,1,14,13Z"/></g></g></svg>